<?xml version="1.0" encoding="UTF-8" standalone="no"?>
<svg
   width="400"
   height="400"
   viewBox="0 0 400 400"
   fill="none"
   version="1.1"
   id="svg2"
   sodipodi:docname="New_Home_Assistant_logo.svg"
   inkscape:version="1.4.3 (fcd0343856, 2026-01-01)"
   xmlns:inkscape="http://www.inkscape.org/namespaces/inkscape"
   xmlns:sodipodi="http://sodipodi.sourceforge.net/DTD/sodipodi-0.dtd"
   xmlns="http://www.w3.org/2000/svg"
   xmlns:svg="http://www.w3.org/2000/svg">
  <defs
     id="defs2" />
  <sodipodi:namedview
     id="namedview2"
     pagecolor="#ffffff"
     bordercolor="#000000"
     borderopacity="0.25"
     inkscape:showpageshadow="2"
     inkscape:pageopacity="0.0"
     inkscape:pagecheckerboard="0"
     inkscape:deskcolor="#d1d1d1"
     inkscape:zoom="1.7783736"
     inkscape:cx="145.63869"
     inkscape:cy="200.46407"
     inkscape:window-width="1920"
     inkscape:window-height="961"
     inkscape:window-x="1920"
     inkscape:window-y="632"
     inkscape:window-maximized="1"
     inkscape:current-layer="svg2" />
  <path
     d="m 318.25944,299.80758 c 0,8.25 -6.75,15 -15,15 H 93.259435 c -8.25,0 -15,-6.75 -15,-15 v -90 c 0,-8.25 4.77,-19.769 10.61,-25.609 L 187.64944,85.418084 c 5.83,-5.83 15.38,-5.83 21.21,0 l 98.79,98.789496 c 5.83,5.83 10.61,17.36 10.61,25.61 v 90 z"
     fill="#f2f4f9"
     id="path1-7" />
  <path
     d="m 198.25391,81.044922 c -3.845,0 -7.68851,1.458046 -10.60352,4.373047 L 88.869141,184.19727 c -5.84,5.84 -10.609375,17.35937 -10.609375,25.60937 v 90 c 0,8.25 6.75,15 15,15 H 303.25977 c 8.25,0 15,-6.75 15,-15 v -89.99023 c 0,-8.25 -4.77937,-19.77938 -10.60938,-25.60938 L 290.6173,167.12618 c -10.75696,15.17813 -0.17541,0.23155 -10.82423,15.36179 l 8.36513,8.16437 c 4.79119,4.79118 8.71875,14.2669 8.71875,21.04688 v 73.95508 c 0,9.8727 -0.34481,12.32617 -12.32617,12.32617 H 111.96875 c -11.75016,0 -12.326172,-2.56406 -12.326172,-12.32617 v -73.96485 c 0,-6.77998 3.919342,-16.24552 8.718752,-21.04492 l 81.17969,-81.17969 c 2.3956,-2.39559 5.2738,-5.63213 8.43368,-5.63213 3.15989,0 5.12433,2.32278 8.996,5.63213 l 48.79721,47.60437 c 10.8246,-14.79948 -0.23747,0.0631 10.49342,-14.54946 L 208.85937,85.417969 c -2.915,-2.915001 -6.76046,-4.373047 -10.60546,-4.373047 z"
     style="fill:#18bcf2"
     id="path8"
     sodipodi:nodetypes="sccssssssccccssssssccsccccs" />
  <path
     id="rect12"
     style="fill:#18bcf2;fill-opacity:1;stroke:none;stroke-width:0.947071;stroke-opacity:1"
     d="m 294.13188,-113.94361 14.69447,165.758829 -73.74969,4.64e-4 5.6e-4,24.131103 75.88726,0.0015 0.006,0.05558 0.63043,-0.05497 22.82859,-5.08e-4 C 331.50894,11.846407 324.142,-52.159803 318.47337,-116.10199 Z"
     transform="rotate(42.206378)"
     sodipodi:nodetypes="cccccccccc" />
</svg>
